<svg width="151" height="52" viewBox="0 0 151 52" fill="none" xmlns="http://www.w3.org/2000/svg">
    <g clip-path="url(#clip0_103_1305)">
        <path
            d="M40.1218 18.4781C39.9875 18.411 39.8868 18.4311 39.7995 18.4311C32.6682 18.4311 25.5436 18.4311 18.4123 18.4311C18.3653 18.4311 18.3183 18.4311 18.2712 18.4311C18.0497 18.4378 18.0295 18.4647 18.0161 18.6796C18.0161 18.7467 18.0161 18.8139 18.0161 18.881C18.0161 25.972 18.0161 33.0564 18.0161 40.1474C18.0161 40.2615 17.9892 40.3757 18.0497 40.4966C18.1638 40.4831 18.2175 40.3891 18.2914 40.3153C18.9763 39.6371 19.6613 38.9521 20.3395 38.2672C21.7966 36.81 23.2605 35.3529 24.7109 33.889C24.8989 33.701 25.087 33.6137 25.3556 33.6137C26.5575 33.6271 27.7595 33.6204 28.9615 33.6137C29.1764 33.6137 29.3376 33.6809 29.4853 33.8286C33.8567 38.2068 38.2416 42.5849 42.6131 46.9631C42.6534 47.0034 42.6937 47.0437 42.734 47.084C42.8011 47.1511 42.7877 47.2183 42.7272 47.2854C42.6802 47.3324 42.6332 47.3794 42.5862 47.4264C41.3372 48.6754 40.0815 49.9311 38.8326 51.1801C38.8057 51.207 38.7788 51.2338 38.752 51.2607C38.5841 51.4151 38.5639 51.4219 38.4028 51.2674C38.3424 51.207 38.2819 51.1465 38.2215 51.0861C34.6222 47.4869 31.0163 43.8876 27.4171 40.2884C27.088 39.9661 27.1552 39.9661 26.8329 40.2884C23.6902 43.4243 20.5543 46.5669 17.4117 49.7028C17.0558 50.0587 17.1297 50.0251 16.7134 49.8505C15.2629 49.2462 13.8125 48.6486 12.3553 48.0509C11.9726 47.8898 11.9659 47.8898 11.9659 47.4734C11.9659 37.9717 11.9659 28.4633 11.9659 18.9616C11.9659 18.8542 11.9659 18.7534 11.9659 18.646C11.9659 18.505 11.9054 18.4311 11.7644 18.4378C11.6704 18.4378 11.5764 18.4378 11.4824 18.4378C7.80929 18.4378 4.13619 18.4378 0.463092 18.4378C0.14525 18.4378 -0.0136719 18.2834 -0.0136719 17.9745C-0.0136719 16.289 -0.0136719 14.6036 -0.0136719 12.9181C-0.0136719 12.3809 0.0131881 12.4413 0.476522 12.4413C4.14962 12.4413 7.82272 12.4413 11.4958 12.4413C11.9927 12.4413 11.9726 12.4749 11.9726 11.9579C11.9726 8.28476 11.9726 4.61166 11.9726 0.938557C11.9726 0.616238 12.1337 0.455078 12.4561 0.455078C14.1415 0.455078 15.827 0.455078 17.5125 0.455078C17.5527 0.455078 17.5863 0.455078 17.6266 0.455078C17.9959 0.455078 18.0094 0.461793 18.0094 0.837833C18.0094 4.53108 18.0094 8.21761 18.0094 11.9109C18.0094 12.4883 17.9691 12.4346 18.5264 12.4346C28.0147 12.4346 37.4963 12.4346 46.9845 12.4346C47.5217 12.4346 47.4412 12.3943 47.6426 12.8711C48.2402 14.3148 48.8379 15.7518 49.4355 17.1956C49.5765 17.538 49.5832 17.5447 49.3146 17.8066C46.1519 20.9694 42.9824 24.1388 39.8197 27.3016C39.5175 27.6038 39.5309 27.5434 39.8197 27.8388C43.439 31.4582 47.0651 35.0776 50.6845 38.7037C51.0135 39.0327 51.027 38.9857 50.6845 39.3349C49.4825 40.5369 48.2738 41.7456 47.0718 42.9475C47.0114 43.008 46.951 43.0684 46.8905 43.1288C46.8032 43.2229 46.7159 43.2229 46.6219 43.1288C46.5682 43.0751 46.5145 43.0214 46.4608 42.9677C42.1229 38.6298 37.785 34.2919 33.4471 29.9607C33.2524 29.766 33.1651 29.5646 33.1718 29.2892C33.1852 28.1141 33.1852 26.939 33.1718 25.7706C33.1718 25.5356 33.2457 25.361 33.4068 25.1931C35.5691 23.0443 37.7179 20.8888 39.8734 18.7333C39.954 18.6527 40.0278 18.5721 40.1218 18.4714V18.4781Z"
            fill="#0BA6EC" />
        <path
            d="M66.0485 50.7437C64.9674 50.7437 63.7722 50.5623 62.6373 50.099C61.7845 49.7565 61.0257 49.2664 60.3542 48.6351C59.9446 48.2524 59.5551 47.8562 59.2261 47.3996C59.0784 47.1981 59.0784 47.1914 59.2395 47.0168C59.8439 46.3386 60.4415 45.6604 61.0459 44.9755C61.0795 44.9419 61.1063 44.9016 61.1399 44.8748C61.2876 44.727 61.3212 44.727 61.4488 44.8949C61.7375 45.2844 62.0464 45.6537 62.3822 46.0029C63.1074 46.7818 63.9602 47.3593 65.0077 47.601C66.0217 47.8361 67.0289 47.8629 68.0295 47.5137C68.4391 47.366 68.795 47.1444 69.0972 46.8355C69.7821 46.117 69.6411 44.8815 68.8353 44.2368C68.3854 43.8742 67.8885 43.6123 67.3513 43.4243C66.7671 43.2229 66.1694 43.0886 65.5651 42.961C64.5511 42.7461 63.564 42.4574 62.6508 41.9604C61.8785 41.5374 61.2138 40.9801 60.737 40.228C60.3139 39.5699 60.1058 38.838 60.0386 38.0657C59.9983 37.6024 59.9916 37.1391 60.0722 36.6825C60.2938 35.4133 60.9586 34.4195 61.9591 33.6473C62.9328 32.8952 64.0475 32.4722 65.2629 32.311C66.5052 32.1431 67.734 32.217 68.9494 32.546C70.467 32.9556 71.7026 33.7816 72.5755 35.1112C72.6091 35.1649 72.6427 35.2253 72.683 35.279C72.73 35.3529 72.7165 35.4268 72.6628 35.4872C72.6024 35.5476 72.5487 35.6081 72.4882 35.6685C71.904 36.246 71.3131 36.8235 70.7222 37.401C70.7155 37.401 70.7088 37.4144 70.702 37.4211C70.5207 37.5957 70.5006 37.589 70.3529 37.401C70.2454 37.26 70.138 37.1122 70.0238 36.9712C69.2449 36.0445 68.2779 35.4268 67.0692 35.2723C66.3709 35.1783 65.6725 35.1984 64.9876 35.4268C64.6183 35.5476 64.2691 35.7222 63.9803 35.9975C63.2484 36.6892 63.2148 37.8106 63.8998 38.5492C64.2221 38.8984 64.6183 39.1334 65.048 39.308C65.7061 39.5766 66.3977 39.7311 67.0961 39.8788C68.2578 40.1273 69.3792 40.4899 70.4133 41.0875C71.0445 41.4501 71.6018 41.8933 72.0585 42.4641C72.7971 43.3907 73.0254 44.4584 72.9247 45.6134C72.871 46.2177 72.7501 46.8087 72.5084 47.3727C72.0652 48.3867 71.3601 49.1723 70.4133 49.7364C69.453 50.3072 68.4055 50.6026 67.2975 50.7101C66.9282 50.7437 66.5589 50.7571 66.0553 50.7638L66.0485 50.7437Z"
            fill="white" />
        <path
            d="M130.445 18.6125C130.499 18.5319 130.479 18.4312 130.479 18.3439C130.479 17.9678 130.479 17.5851 130.479 17.209C130.479 16.9472 130.513 16.9203 130.781 16.9203C131.681 16.9203 132.581 16.9203 133.481 16.9203C133.749 16.9203 133.769 16.9472 133.776 17.2158C133.776 17.2829 133.776 17.3501 133.776 17.4172C133.776 21.6544 133.776 25.8982 133.776 30.1354C133.776 30.4667 133.61 30.6323 133.279 30.6323C132.5 30.6323 131.728 30.6323 130.949 30.6323C130.902 30.6323 130.855 30.6323 130.808 30.6323C130.486 30.6323 130.466 30.6122 130.466 30.2966C130.466 29.9205 130.466 29.5378 130.466 29.1617C130.466 29.0744 130.492 28.9737 130.432 28.8797C130.325 28.92 130.271 29.014 130.204 29.0811C129.196 30.0951 127.988 30.7062 126.578 30.8472C124.966 31.0151 123.522 30.5517 122.307 29.4706C121.065 28.3693 120.319 26.9861 120.017 25.3543C119.715 23.7159 119.829 22.111 120.474 20.5665C121.038 19.2034 121.944 18.129 123.234 17.3903C123.979 16.9673 124.785 16.7323 125.631 16.6584C126.625 16.5778 127.598 16.692 128.518 17.1083C129.217 17.4172 129.787 17.8873 130.278 18.4647C130.325 18.5185 130.351 18.599 130.452 18.6192L130.445 18.6125ZM130.566 23.7427C130.566 23.5547 130.58 23.36 130.566 23.1787C130.546 22.9504 130.513 22.7288 130.459 22.5072C130.009 20.5867 128.444 19.2504 126.228 19.5794C124.966 19.7674 124.093 20.5195 123.589 21.6678C123.039 22.9235 123.046 24.2262 123.462 25.5222C123.71 26.281 124.16 26.9055 124.812 27.3688C125.584 27.9127 126.45 28.0672 127.377 27.953C128.384 27.8254 129.176 27.342 129.767 26.5294C130.365 25.7035 130.593 24.7567 130.566 23.7494V23.7427Z"
            fill="white" />
        <path
            d="M100.59 18.6259C100.705 18.5789 100.752 18.4916 100.819 18.4245C101.792 17.4105 102.974 16.7994 104.378 16.6517C105.271 16.5577 106.157 16.6719 106.996 17.0277C108.057 17.4777 108.729 18.2835 109.125 19.3377C109.367 19.9689 109.474 20.6337 109.541 21.3052C109.595 21.9163 109.588 22.534 109.588 23.1518C109.588 25.4618 109.588 27.7717 109.588 30.0817C109.588 30.6726 109.622 30.6256 109.024 30.6256C108.279 30.6256 107.527 30.6256 106.782 30.6256C106.708 30.6256 106.627 30.6256 106.553 30.6256C106.372 30.6122 106.338 30.5786 106.325 30.404C106.325 30.31 106.325 30.216 106.325 30.122C106.325 27.624 106.325 25.126 106.325 22.6281C106.325 22.1379 106.285 21.6477 106.157 21.1642C105.875 20.0831 105.157 19.5727 104.089 19.5056C103.538 19.472 102.988 19.5123 102.471 19.7205C101.631 20.0495 101.047 20.6337 100.725 21.4798C100.584 21.8491 100.57 22.2386 100.57 22.6281C100.57 25.1327 100.57 27.6441 100.57 30.1488C100.57 30.4667 100.409 30.6256 100.087 30.6256C99.3011 30.6256 98.5155 30.6256 97.7298 30.6256C97.6425 30.6256 97.5619 30.6256 97.4746 30.6189C97.3873 30.6122 97.3336 30.5585 97.3269 30.4712C97.3202 30.3839 97.3135 30.3033 97.3135 30.216C97.3135 24.421 97.3135 18.6326 97.3135 12.8376C97.3135 12.428 97.3135 12.428 97.7231 12.428C98.5356 12.428 99.3481 12.428 100.167 12.428C100.241 12.428 100.322 12.428 100.396 12.428C100.496 12.428 100.55 12.4884 100.557 12.5891C100.557 12.6831 100.564 12.7772 100.564 12.8712C100.564 14.6775 100.564 16.4838 100.564 18.2969C100.564 18.3976 100.537 18.505 100.597 18.6192L100.59 18.6259Z"
            fill="white" />
        <path
            d="M78.1894 24.5082C76.6383 24.5082 75.0871 24.5082 73.5292 24.5082C73.1532 24.5082 73.1397 24.5216 73.2338 24.8976C73.5695 26.2071 74.3552 27.1405 75.6243 27.6172C76.8934 28.0873 78.176 28.1007 79.4518 27.5971C79.7674 27.4695 80.0629 27.2882 80.3382 27.0934C80.4994 26.9793 80.6605 26.8584 80.815 26.7376C81.0702 26.5361 81.0702 26.5361 81.2716 26.8114C81.4529 27.0532 81.6275 27.3016 81.8021 27.5501C82.0438 27.8858 82.2856 28.2283 82.5273 28.564C82.6818 28.7856 82.6817 28.7923 82.4669 28.9804C81.8289 29.531 81.1037 29.9339 80.3248 30.2495C79.1228 30.7397 77.8738 30.9613 76.5778 30.8673C74.6976 30.733 73.0457 30.0615 71.7296 28.6715C70.8029 27.6978 70.2389 26.5361 70.0307 25.2065C69.7755 23.6151 69.93 22.0706 70.6015 20.6001C71.555 18.5117 73.1666 17.2224 75.4228 16.7658C76.504 16.5442 77.5918 16.5375 78.6528 16.8665C81.0164 17.5985 82.4736 19.1832 83.0511 21.5872C83.2592 22.4735 83.2391 23.3733 83.2122 24.2732C83.2122 24.488 83.1719 24.5216 82.9571 24.5216C82.5475 24.5216 82.1446 24.5216 81.7349 24.5216C80.5531 24.5216 79.3713 24.5216 78.1827 24.5216L78.1894 24.5082ZM76.6181 22.2654C77.4709 22.2654 78.3237 22.2654 79.1698 22.2654C79.378 22.2654 79.5861 22.2654 79.7943 22.2654C80.0025 22.2654 80.036 22.2184 80.0159 22.0035C80.0159 21.9632 80.0025 21.9296 79.9958 21.8893C79.7607 20.7679 79.0624 20.0427 78.0081 19.6801C76.9942 19.3376 75.9869 19.4518 75.0199 19.8883C74.1067 20.2979 73.5695 21.0432 73.3009 21.9901C73.2338 22.2318 73.2472 22.2519 73.4956 22.2587C73.5628 22.2587 73.6299 22.2587 73.6971 22.2587C74.6708 22.2587 75.6444 22.2587 76.6181 22.2587V22.2654Z"
            fill="white" />
        <path
            d="M81.0366 50.7437C79.331 50.7437 77.9007 50.3542 76.6383 49.441C75.2416 48.427 74.3552 47.0639 73.9791 45.3784C73.6635 43.9616 73.7173 42.5514 74.2276 41.1883C75.0804 38.9052 76.7121 37.4413 79.0825 36.8773C80.8687 36.4542 82.628 36.6019 84.2665 37.4816C86.234 38.5292 87.389 40.1878 87.7717 42.3701C88 43.6863 87.9262 44.9957 87.4561 46.2581C86.6033 48.5479 84.9581 49.9715 82.5878 50.5557C82.0237 50.6967 81.4529 50.7571 81.0299 50.7437H81.0366ZM77.0815 43.9011C77.068 44.5189 77.2426 45.2844 77.6455 45.9895C78.4715 47.4467 80.0898 48.1987 81.7887 47.7623C83.125 47.4198 83.9509 46.4931 84.3941 45.2173C84.6425 44.4988 84.6493 43.7534 84.5754 43.0013C84.4075 41.2487 82.9504 39.4357 80.7411 39.5297C79.5727 39.5834 78.6393 40.0467 77.9343 40.96C77.3098 41.7658 77.0815 42.6992 77.0815 43.8944V43.9011Z"
            fill="white" />
        <path
            d="M137.429 43.5587C137.443 45.4657 136.925 47.037 135.777 48.3867C134.904 49.4074 133.81 50.0991 132.52 50.455C130.869 50.9116 129.21 50.8847 127.625 50.2199C125.201 49.206 123.798 47.3593 123.428 44.7539C123.213 43.2095 123.401 41.7053 124.154 40.322C125.208 38.368 126.846 37.1861 129.035 36.7967C130.419 36.5482 131.795 36.6221 133.111 37.1593C135.428 38.0994 136.818 39.8251 137.315 42.2694C137.409 42.7461 137.443 43.2229 137.436 43.5654L137.429 43.5587ZM134.159 43.6728C134.166 43.3975 134.145 43.1155 134.105 42.8334C133.87 41.1144 132.393 39.4357 130.291 39.5364C128.894 39.6035 127.854 40.2347 127.175 41.4434C126.571 42.5178 126.49 43.6795 126.752 44.8614C127.169 46.7281 128.753 47.9637 130.553 47.8831C131.634 47.8361 132.507 47.3929 133.192 46.5804C133.897 45.7477 134.186 44.7674 134.159 43.6795V43.6728Z"
            fill="white" />
        <path
            d="M142.116 38.6836C142.351 38.4485 142.553 38.2135 142.794 38.0188C143.647 37.3137 144.608 36.8437 145.709 36.7161C146.709 36.6019 147.696 36.6959 148.623 37.1391C149.577 37.5957 150.194 38.3613 150.564 39.3416C150.873 40.1676 151 41.0271 151.007 41.9001C151.014 43.4109 151.007 44.9285 151.007 46.4394C151.007 47.6481 151.007 48.8635 151.007 50.0722C151.007 50.1595 151.007 50.2401 151.007 50.3274C151.007 50.4281 150.946 50.4885 150.852 50.4952C150.779 50.502 150.705 50.502 150.624 50.502C149.812 50.502 148.999 50.502 148.18 50.502C148.133 50.502 148.086 50.502 148.039 50.502C147.837 50.4885 147.811 50.4617 147.797 50.2669C147.797 50.1796 147.797 50.0991 147.797 50.0118C147.797 47.5138 147.797 45.0158 147.797 42.5178C147.797 41.9471 147.743 41.383 147.542 40.8458C147.287 40.1743 146.817 39.7445 146.112 39.5968C145.151 39.3886 144.218 39.4894 143.392 40.0467C142.586 40.5906 142.13 41.3561 142.136 42.3634C142.143 44.9084 142.136 47.4533 142.136 49.9983C142.136 50.3386 141.964 50.5087 141.619 50.5087C140.861 50.5087 140.108 50.5087 139.35 50.5087C139.276 50.5087 139.195 50.5087 139.121 50.5087C138.987 50.5087 138.913 50.4348 138.906 50.3005C138.906 50.2132 138.906 50.1326 138.906 50.0453C138.906 45.8418 138.906 41.6449 138.906 37.4413C138.906 37.4212 138.906 37.401 138.906 37.3876C138.906 37.1145 139.043 36.978 139.316 36.978C140.102 36.978 140.887 36.978 141.673 36.978C142.036 36.978 142.022 36.978 142.056 37.3271C142.089 37.683 142.083 38.0456 142.089 38.4015C142.089 38.4888 142.076 38.5896 142.13 38.697L142.116 38.6836Z"
            fill="white" />
        <path
            d="M103.794 48.709C103.713 48.709 103.693 48.7829 103.653 48.8299C102.699 49.911 101.511 50.5758 100.074 50.7101C98.8312 50.8309 97.6561 50.6093 96.6354 49.8304C95.7894 49.1858 95.2924 48.3061 95.0238 47.2921C94.8694 46.7146 94.7888 46.1237 94.7888 45.5261C94.7888 42.7931 94.7888 40.0534 94.7888 37.3204C94.7888 37.2935 94.7888 37.2667 94.7888 37.2331C94.7955 36.9846 94.8157 36.9578 95.0708 36.9578C95.7692 36.9578 96.4743 36.9578 97.1726 36.9578C97.3405 36.9578 97.5151 36.9578 97.683 36.9578C97.9852 36.9578 97.9919 36.9712 97.9986 37.2868C97.9986 37.3741 97.9986 37.4547 97.9986 37.542C97.9986 39.9191 97.9986 42.2962 97.9986 44.6666C97.9986 45.2642 98.0792 45.8551 98.3209 46.4125C98.7372 47.3727 99.4826 47.8831 100.517 47.9703C101.108 48.0241 101.692 47.9435 102.229 47.6615C103.216 47.1377 103.76 46.3185 103.78 45.2038C103.8 43.8675 103.78 42.5379 103.78 41.2016C103.78 39.9594 103.78 38.7238 103.78 37.4815C103.78 37.4144 103.78 37.3472 103.78 37.2801C103.787 36.9846 103.807 36.9645 104.109 36.9578C104.962 36.9578 105.815 36.9578 106.668 36.9578C107.01 36.9578 107.024 36.9712 107.024 37.3069C107.024 37.9382 107.024 38.5761 107.024 39.2073C107.024 42.8132 107.024 46.4192 107.024 50.0251C107.024 50.3385 106.869 50.4952 106.56 50.4952C105.815 50.4952 105.063 50.4952 104.317 50.4952C104.23 50.4952 104.15 50.4952 104.062 50.4952C103.955 50.4885 103.888 50.428 103.881 50.3139C103.881 50.24 103.881 50.1594 103.881 50.0856C103.867 49.6625 103.854 49.2328 103.841 48.8097C103.841 48.7761 103.841 48.7359 103.8 48.709H103.794Z"
            fill="white" />
        <path
            d="M66.7001 23.152C66.7001 25.5022 66.7001 27.8458 66.7001 30.196C66.7001 30.487 66.5523 30.6325 66.2569 30.6325C65.4041 30.6325 64.5513 30.6325 63.6985 30.6325C63.6112 30.6325 63.5306 30.6325 63.4433 30.6325C63.3291 30.6325 63.2687 30.5653 63.2687 30.4512C63.2687 30.3505 63.2687 30.243 63.2687 30.1423C63.2687 25.4687 63.2687 20.795 63.2687 16.1147C63.2687 15.6178 63.3157 15.6379 62.7852 15.6379C61.3683 15.6379 59.9448 15.6379 58.5279 15.6379C58.0981 15.6379 58.0981 15.6379 58.0981 15.2149C58.0981 14.4024 58.0981 13.5899 58.0981 12.7706C58.0981 12.4684 58.1183 12.4416 58.4205 12.4416C58.8099 12.4416 59.1994 12.4416 59.5822 12.4416C63.5776 12.4416 67.573 12.4416 71.5684 12.4416C71.8818 12.4416 72.0385 12.5983 72.0385 12.9116C72.0385 13.704 72.0385 14.5031 72.0385 15.2955C72.0385 15.6111 72.0116 15.6379 71.696 15.6379C70.1717 15.6379 68.6474 15.6379 67.1231 15.6379C66.8455 15.6379 66.7068 15.7789 66.7068 16.061C66.7068 18.4246 66.7068 20.795 66.7068 23.1587L66.7001 23.152Z"
            fill="white" />
        <path
            d="M90.5583 30.8673C88.6713 30.8808 87.0597 30.2093 85.7503 28.8595C84.7028 27.7784 84.0984 26.4757 83.8836 24.9917C83.6821 23.6286 83.7761 22.2856 84.2797 20.9963C85.1527 18.7736 86.7374 17.3299 89.0877 16.786C89.8599 16.6047 90.6388 16.598 91.4312 16.6785C92.237 16.7591 93.0159 16.9471 93.7613 17.2695C94.6611 17.6589 95.4468 18.2096 96.0444 18.9952C96.2011 19.2011 96.2011 19.4004 96.0444 19.5929C95.5878 20.1368 95.1379 20.6874 94.6813 21.2313C94.4798 21.473 94.4597 21.473 94.2582 21.2313C93.5934 20.4524 92.7675 19.9085 91.7804 19.6533C90.1889 19.2437 88.5773 19.8413 87.644 21.285C87.2008 21.97 86.9859 22.722 86.9725 23.5413C86.9523 24.2598 87.0262 24.9581 87.3351 25.6162C87.9058 26.8182 88.8124 27.6173 90.1218 27.8993C91.1492 28.1209 92.1161 27.906 93.0092 27.3755C93.4591 27.1069 93.862 26.7779 94.1978 26.375C94.2179 26.3548 94.2381 26.3347 94.2515 26.3146C94.4597 26.0862 94.4664 26.0862 94.6544 26.3146C94.9969 26.7309 95.3393 27.1472 95.6818 27.5635C95.8228 27.7381 95.9705 27.9127 96.1116 28.0873C96.2459 28.2619 96.2526 28.2821 96.1116 28.4566C95.8564 28.7722 95.5609 29.0543 95.2319 29.3027C94.1239 30.1287 92.8884 30.639 91.5118 30.8069C91.1895 30.8472 90.8739 30.8539 90.5515 30.8606L90.5583 30.8673Z"
            fill="white" />
        <path
            d="M114.021 45.2173C114.021 46.8087 114.021 48.3935 114.021 49.9849C114.021 50.0722 114.021 50.1528 114.021 50.2401C114.014 50.455 113.987 50.4885 113.772 50.4952C112.872 50.4952 111.973 50.4952 111.073 50.4952C110.844 50.4952 110.818 50.455 110.811 50.2267C110.811 50.1394 110.811 50.0588 110.811 49.9715C110.811 46.7751 110.811 43.5721 110.811 40.3758C110.811 39.9393 110.844 39.9393 110.374 39.9393C109.743 39.9393 109.105 39.9393 108.474 39.9393C108.172 39.9393 108.152 39.9124 108.145 39.617C108.145 38.838 108.145 38.0658 108.145 37.2869C108.145 36.978 108.165 36.9645 108.467 36.9578C109.119 36.9578 109.777 36.9578 110.428 36.9578C110.502 36.9578 110.583 36.9578 110.656 36.9578C110.764 36.9578 110.811 36.8974 110.811 36.7967C110.811 36.7094 110.811 36.6288 110.811 36.5415C110.811 35.2254 110.811 33.9092 110.811 32.5931C110.811 32.217 110.818 32.2103 111.194 32.2103C112.006 32.2103 112.819 32.2103 113.638 32.2103C113.712 32.2103 113.792 32.2103 113.866 32.217C113.96 32.2238 114.021 32.2775 114.027 32.3849C114.027 32.4722 114.027 32.5528 114.027 32.6401C114.027 33.9428 114.027 35.2522 114.027 36.5549C114.027 36.6288 114.027 36.7094 114.027 36.7832C114.027 36.8974 114.081 36.9578 114.202 36.9578C114.276 36.9578 114.356 36.9578 114.43 36.9578C115.169 36.9578 115.908 36.9578 116.646 36.9578C116.955 36.9578 116.975 36.978 116.975 37.2734C116.975 38.0591 116.975 38.8447 116.975 39.6304C116.975 39.9057 116.942 39.9326 116.66 39.9393C115.928 39.9393 115.202 39.9393 114.471 39.9393C114.397 39.9393 114.316 39.9393 114.242 39.9393C114.061 39.9527 114.034 39.9729 114.027 40.1609C114.027 40.2347 114.027 40.3153 114.027 40.3892C114.027 42.0008 114.027 43.6057 114.027 45.2173H114.021Z"
            fill="white" />
        <path
            d="M115.041 19.0556C115.303 18.6594 115.599 18.2901 115.941 17.9678C116.707 17.2493 117.6 16.7792 118.654 16.6584C119.231 16.5912 119.809 16.6584 120.366 16.8262C120.594 16.8934 120.615 16.927 120.561 17.1486C120.312 18.176 120.064 19.2101 119.809 20.2375C119.762 20.4389 119.728 20.4523 119.534 20.3718C119.003 20.1636 118.466 20.0629 117.895 20.1233C116.827 20.2307 116.035 20.7612 115.484 21.6677C115.162 22.1982 115.055 22.7959 115.055 23.4069C115.055 25.6565 115.055 27.9127 115.055 30.1622C115.055 30.4756 114.9 30.6323 114.591 30.6323C113.806 30.6323 113.02 30.6323 112.234 30.6323C112.147 30.6323 112.066 30.6323 111.979 30.6323C111.858 30.6323 111.784 30.5651 111.784 30.4375C111.784 30.3637 111.784 30.2831 111.784 30.2092C111.784 25.925 111.784 21.6409 111.784 17.3567C111.784 17.0747 111.923 16.9314 112.201 16.927C112.986 16.927 113.772 16.927 114.558 16.927C114.564 16.927 114.578 16.927 114.585 16.927C114.853 16.927 114.987 17.0568 114.987 17.3164C114.987 17.5246 114.987 17.7328 114.987 17.9409C114.987 18.3103 114.987 18.6796 114.987 19.0422C115.008 19.0422 115.028 19.0556 115.048 19.0623L115.041 19.0556Z"
            fill="white" />
        <path
            d="M136.106 21.5066C136.106 18.6393 136.106 15.772 136.106 12.9047C136.106 12.5914 136.261 12.4347 136.57 12.4347C137.375 12.4347 138.181 12.4347 138.98 12.4347C139.068 12.4347 139.148 12.4347 139.235 12.4347C139.336 12.4347 139.39 12.4951 139.403 12.5959C139.403 12.6697 139.41 12.7503 139.41 12.8242C139.41 18.6326 139.41 24.4411 139.41 30.2496C139.41 30.3167 139.41 30.3839 139.41 30.451C139.41 30.5652 139.336 30.6189 139.229 30.6256C139.162 30.6256 139.094 30.6256 139.027 30.6256C138.188 30.6256 137.342 30.6256 136.502 30.6256C136.435 30.6256 136.368 30.6256 136.301 30.6256C136.187 30.6256 136.126 30.5585 136.12 30.4443C136.113 30.3301 136.106 30.216 136.106 30.1018C136.106 27.2345 136.106 24.3672 136.106 21.4999V21.5066Z"
            fill="white" />
        <path
            d="M89.343 41.2688C89.343 38.4015 89.343 35.5342 89.343 32.6669C89.343 32.3625 89.493 32.2103 89.7929 32.2103C90.5853 32.2103 91.3844 32.2103 92.1767 32.2103C92.264 32.2103 92.3446 32.2103 92.4319 32.2103C92.5729 32.2103 92.6401 32.2909 92.6401 32.4252C92.6401 32.5125 92.6401 32.5931 92.6401 32.6804C92.6401 38.4351 92.6401 44.1832 92.6401 49.9379C92.6401 50.2468 92.4834 50.4012 92.17 50.4012C91.3642 50.4012 90.5584 50.4012 89.7593 50.4012C89.6855 50.4012 89.6049 50.4012 89.531 50.4012C89.4035 50.4012 89.343 50.3274 89.343 50.2065C89.343 50.1058 89.343 49.9983 89.343 49.8976C89.343 47.0236 89.343 44.1429 89.343 41.2688Z"
            fill="white" />
        <path
            d="M118.372 43.7063C118.372 41.6045 118.372 39.5095 118.372 37.4077C118.372 37.1122 118.524 36.9622 118.829 36.9578C119.608 36.9578 120.38 36.9578 121.159 36.9578C121.233 36.9578 121.313 36.9578 121.387 36.9578C121.515 36.9578 121.582 37.0115 121.582 37.1458C121.582 37.2129 121.582 37.2801 121.582 37.3472C121.582 41.6045 121.582 45.8618 121.582 50.1191C121.582 50.4885 121.568 50.5019 121.199 50.5019C120.386 50.5019 119.574 50.5019 118.755 50.5019C118.714 50.5019 118.681 50.5019 118.641 50.5019C118.406 50.4885 118.379 50.4616 118.365 50.24C118.365 50.1527 118.365 50.0721 118.365 49.9848C118.365 47.8965 118.365 45.8014 118.365 43.713L118.372 43.7063Z"
            fill="white" />
        <path
            d="M122.025 34.0972C122.025 34.997 121.494 35.6618 120.615 35.8767C120.165 35.9841 119.715 35.9774 119.265 35.8767C118.338 35.6484 117.875 34.95 117.929 34.0032C117.982 32.996 118.641 32.3648 119.641 32.2506C119.937 32.217 120.225 32.2305 120.514 32.2842C121.494 32.4521 122.018 33.0967 122.018 34.1107L122.025 34.0972Z"
            fill="white" />
    </g>
    <defs>
        <clipPath id="clip0_103_1305">
            <rect width="151" height="50.9198" fill="white" transform="translate(0 0.455078)" />
        </clipPath>
    </defs>
</svg>